<svg width="24" height="25" viewBox="0 0 24 25" fill="none" xmlns="http://www.w3.org/2000/svg">
<path d="M12 2C16.6992 2 18 3.084 18 7C18 10.916 16.6992 12 12 12C7.3008 12 6 10.916 6 7C6 3.084 7.3008 2 12 2Z" fill="#3D3C3A"/>
<path d="M4.18534 19.2382C4.05395 19.0908 3.99756 18.8943 4.00933 18.6972C4.16587 16.0768 6.34057 14 9.00031 14H15.0003C17.6601 14 19.8348 16.0768 19.9913 18.6972C20.0031 18.8943 19.9467 19.0908 19.8153 19.2382C17.4236 21.9206 6.577 21.9206 4.18534 19.2382Z" fill="#3D3C3A"/>
<rect x="16" y="5.25" width="3" height="3" rx="1.5" fill="#3D3C3A"/>
<rect x="5" y="6.25" width="3" height="3" rx="1.5" fill="#3D3C3A"/>
<path d="M12 3L12 1" stroke="#3D3C3A" stroke-width="1.6" stroke-linecap="round"/>
<path d="M10 6.5L10 8" stroke="white" stroke-width="1.6" stroke-linecap="round" stroke-linejoin="round"/>
<path d="M14 6.5L14 8" stroke="white" stroke-width="1.6" stroke-linecap="round" stroke-linejoin="round"/>
</svg>
