<svg width="24" height="24" viewBox="0 0 24 24" fill="none" xmlns="http://www.w3.org/2000/svg">
<path d="M15 3C17.2091 3 19 4.79086 19 7C19 7.13747 18.993 7.27332 18.9795 7.40723C20.7563 8.17407 22 9.94177 22 12C22 13.6473 21.2027 15.1076 19.9736 16.0186C19.9905 16.1768 20 16.3373 20 16.5C20 18.9853 17.9853 21 15.5 21C14.0859 21 12.825 20.3472 12 19.3271C11.175 20.3472 9.91406 21 8.5 21C6.01472 21 4 18.9853 4 16.5C4 16.3374 4.00857 16.1767 4.02539 16.0186C2.79672 15.1076 2 13.647 2 12C2 9.94208 3.24314 8.17426 5.01953 7.40723C5.006 7.27336 5 7.13744 5 7C5 4.79086 6.79086 3 9 3C10.195 3 11.267 3.52463 12 4.35547C12.733 3.52463 13.805 3 15 3Z" fill="#3D3C3A"/>
<path d="M12 3L12 21" stroke="#F5F5F5" stroke-width="1.6" stroke-linecap="round" stroke-linejoin="round"/>
<path d="M15.5 11C15.0404 11 14.5852 11.0905 14.1606 11.2664C13.736 11.4423 13.3501 11.7001 13.0251 12.0251C12.7001 12.3501 12.4423 12.736 12.2664 13.1606C12.0905 13.5852 12 14.0404 12 14.5" stroke="#F5F5F5" stroke-width="1.6" stroke-linecap="round" stroke-linejoin="round"/>
<path d="M8.5 11C8.95963 11 9.41475 11.0905 9.83939 11.2664C10.264 11.4423 10.6499 11.7001 10.9749 12.0251C11.2999 12.3501 11.5577 12.736 11.7336 13.1606C11.9095 13.5852 12 14.0404 12 14.5" stroke="#F5F5F5" stroke-width="1.6" stroke-linecap="round" stroke-linejoin="round"/>
</svg>
