<svg width="24" height="25" viewBox="0 0 24 25" fill="none" xmlns="http://www.w3.org/2000/svg">
<path d="M7.42059 4.53262C5.91436 4.53262 5.19499 4.65374 4.46363 5.04351C3.84034 5.37569 3.34602 5.86829 3.01268 6.4894C2.62155 7.2182 2.5 7.93506 2.5 9.43604V14.7379C2.5 16.2389 2.62155 16.9557 3.01268 17.6845C3.34602 18.3057 3.84034 18.7983 4.46363 19.1304C5.19499 19.5202 5.91436 19.6413 7.42059 19.6413H16.5794C18.0856 19.6413 18.805 19.5202 19.5364 19.1304C20.1597 18.7983 20.654 18.3057 20.9873 17.6845C21.3785 16.9557 21.5 16.2389 21.5 14.7379V9.43604C21.5 7.93506 21.3785 7.2182 20.9873 6.4894C20.654 5.86829 20.1597 5.37569 19.5364 5.04351C18.805 4.65374 18.0856 4.53262 16.5794 4.53262H7.42059Z" fill="#3D3C3A"/>
<path d="M17.5 6.54709C18.6046 6.54709 19.5 7.44901 19.5 8.56158V11.0797H14.5C14.2239 11.0797 14.0063 11.3069 13.9392 11.5748C13.7201 12.448 12.935 13.0942 12 13.0942C11.065 13.0942 10.2799 12.448 10.0608 11.5748C9.99365 11.3069 9.77614 11.0797 9.5 11.0797H4.5V8.56158C4.5 7.44901 5.39543 6.54709 6.5 6.54709H17.5Z" fill="white"/>
</svg>
