<svg width="24" height="25" viewBox="0 0 24 25" fill="none" xmlns="http://www.w3.org/2000/svg">
<path d="M3.5 7.70694C3.5 6.45137 3.5 5.82359 3.73268 5.33905C3.965 4.85523 4.35523 4.465 4.83905 4.23267C5.3236 4 5.95138 4 7.20694 4H7.34861C8.60418 4 9.23196 4 9.7165 4.23267C10.2003 4.465 10.5906 4.85523 10.8229 5.33905C11.0556 5.82359 11.0556 6.45137 11.0556 7.70694V7.84861C11.0556 9.10417 11.0556 9.73195 10.8229 10.2165C10.5906 10.7003 10.2003 11.0905 9.7165 11.3229C9.23196 11.5556 8.60418 11.5556 7.34861 11.5556H7.20694C5.95138 11.5556 5.3236 11.5556 4.83905 11.3229C4.35523 11.0905 3.965 10.7003 3.73268 10.2165C3.5 9.73195 3.5 9.10417 3.5 7.84861V7.70694Z" fill="#3D3C3A"/>
<path d="M14.0017 10.399C13.1139 9.51116 12.67 9.06725 12.4919 8.5601C12.3141 8.05371 12.3141 7.50184 12.4919 6.99545C12.67 6.4883 13.1139 6.04439 14.0017 5.15657L14.1019 5.05639C14.9897 4.16857 15.4336 3.72467 15.9408 3.54657C16.4472 3.36873 16.999 3.36873 17.5054 3.54657C18.0126 3.72467 18.4565 4.16858 19.3443 5.05639L19.4445 5.15657C20.3323 6.04439 20.7762 6.4883 20.9543 6.99545C21.1321 7.50184 21.1321 8.05371 20.9543 8.5601C20.7762 9.06725 20.3323 9.51116 19.4445 10.399L19.3443 10.4992C18.4565 11.387 18.0126 11.8309 17.5054 12.009C16.999 12.1868 16.4472 12.1868 15.9408 12.009C15.4336 11.8309 14.9897 11.387 14.1019 10.4992L14.0017 10.399Z" fill="#3D3C3A"/>
<path d="M3.5 17.1514C3.5 15.8958 3.5 15.2681 3.73268 14.7835C3.965 14.2997 4.35523 13.9095 4.83905 13.6771C5.3236 13.4445 5.95138 13.4445 7.20694 13.4445H7.34861C8.60418 13.4445 9.23196 13.4445 9.7165 13.6771C10.2003 13.9095 10.5906 14.2997 10.8229 14.7835C11.0556 15.2681 11.0556 15.8958 11.0556 17.1514V17.2931C11.0556 18.5486 11.0556 19.1764 10.8229 19.661C10.5906 20.1448 10.2003 20.535 9.7165 20.7673C9.23196 21 8.60418 21 7.34861 21H7.20694C5.95138 21 5.3236 21 4.83905 20.7673C4.35523 20.535 3.965 20.1448 3.73268 19.661C3.5 19.1764 3.5 18.5486 3.5 17.2931V17.1514Z" fill="#3D3C3A"/>
<path d="M12.9453 17.1514C12.9453 15.8958 12.9453 15.2681 13.178 14.7835C13.4103 14.2997 13.8005 13.9095 14.2844 13.6771C14.7689 13.4445 15.3967 13.4445 16.6523 13.4445H16.7939C18.0495 13.4445 18.6773 13.4445 19.1618 13.6771C19.6456 13.9095 20.0359 14.2997 20.2682 14.7835C20.5009 15.2681 20.5009 15.8958 20.5009 17.1514V17.2931C20.5009 18.5486 20.5009 19.1764 20.2682 19.661C20.0359 20.1448 19.6456 20.535 19.1618 20.7673C18.6773 21 18.0495 21 16.7939 21H16.6523C15.3967 21 14.7689 21 14.2844 20.7673C13.8005 20.535 13.4103 20.1448 13.178 19.661C12.9453 19.1764 12.9453 18.5486 12.9453 17.2931V17.1514Z" fill="#3D3C3A"/>
</svg>
