<svg width="24" height="25" viewBox="0 0 24 25" fill="none" xmlns="http://www.w3.org/2000/svg">
<path d="M16.5791 4.53223C18.0853 4.53223 18.8048 4.65418 19.5361 5.04395C20.1594 5.3761 20.654 5.86819 20.9873 6.48926C21.3784 7.21798 21.5 7.9349 21.5 9.43555V14.7383C21.5 16.239 21.3784 16.9558 20.9873 17.6846C20.654 18.3057 20.1594 18.7987 19.5361 19.1309C18.8049 19.5205 18.0851 19.6416 16.5791 19.6416H7.4209C5.91492 19.6416 5.1951 19.5205 4.46387 19.1309C3.84059 18.7987 3.34603 18.3057 3.0127 17.6846C2.6216 16.9558 2.50002 16.239 2.5 14.7383V9.43555C2.50003 7.9349 2.6216 7.21798 3.0127 6.48926C3.34603 5.86819 3.84061 5.3761 4.46387 5.04395C5.19522 4.65418 5.91467 4.53223 7.4209 4.53223H16.5791ZM7 7.05078C5.89543 7.05078 5 7.95286 5 9.06543C5.00011 10.1779 5.8955 11.0801 7 11.0801C8.1045 11.0801 8.99989 10.1779 9 9.06543C9 7.95286 8.10457 7.05078 7 7.05078ZM13 8.26562C12.5582 8.26562 12.2002 8.62362 12.2002 9.06543C12.2003 9.50713 12.5583 9.8652 13 9.86523H17C17.4418 9.86524 17.7998 9.50724 17.7998 9.06543C17.7998 8.62366 17.4418 8.26566 17 8.26562H13Z" fill="#3D3C3A"/>
</svg>
